<svg xmlns:xlink="http://www.w3.org/1999/xlink" xmlns="http://www.w3.org/2000/svg" class="css-rt6ihi"
     viewBox="0 0 108.50000000000001 150.80336519868243" width="108.50000000000001" height="150.80336519868243">
    <g transform="translate(-2.658311600592002, -48.4907354516641) scale(2.257782598452149)" fill="#FFFFFF">
        <path d="M35.64 81.06 c0.18 -0.66 0.42 -4.02 0.66 -6.54 l-0.3 -1.92 c-0.66 -4.14 -5.76 -9.18 -11.82 -11.88 c-1.98 -0.84 -5.34 -2.28 -8.04 -3.54 c-6.9 11.52 -12.66 22.68 -15.72 29.82 c-0.9 2.1 -1.92 1.2 -1.5 0.12 c3.72 -8.76 7.38 -16.14 15.9 -30.54 c-1.14 -0.48 -2.1 -0.96 -2.58 -1.2 c-1.8 -0.9 -1.38 -3.9 5.7 -4.02 l1.68 -2.7 c11.52 -19.02 23.28 -27.36 24.96 -27.18 s2.58 1.26 2.22 3.06 c-0.3 1.8 -3.24 13.14 -6.12 27.54 c0.78 0.18 1.68 0.42 2.58 0.9 c1.26 0.72 4.2 1.62 -2.58 0.72 l-0.3 0 c-2.04 10.8 -2.34 13.92 -2.82 20.34 c-0.06 0.18 0 0.36 -0.06 0.54 c0.6 3.9 0.48 4.44 0.42 5.22 c-0.06 0.9 -1.2 1.86 -1.62 1.8 s-0.84 0.06 -0.66 -0.54 z M19.68 51.36 c7.2 -0.06 18.6 0.48 19.86 0.54 c3 -15.3 6.12 -26.28 6.24 -27.36 c0.12 -1.02 0.24 -1.98 -0.84 -2.1 c-1.14 -0.12 -15.66 13.74 -24 26.94 z M24.6 59.82 c7.44 3.54 10.8 7.26 12.06 10.74 c0.36 -3.84 0.72 -7.38 2.52 -17.04 c-6.48 -0.66 -15.24 -0.6 -20.52 -0.48 c-0.66 1.02 -1.26 2.04 -1.86 3.06 z M13.08 54.36 l2.4 1.14 l1.44 -2.4 c-4.2 0.3 -4.32 1.14 -3.84 1.26 z"
              fill="#FFFFFF"></path>
    </g>
</svg>
